<!-- icon666.com - MILLIONS vector ICONS FREE --><svg viewBox="0 0 128 128" xmlns="http://www.w3.org/2000/svg"><g><path d="m109.692 93.176-39.292-65.976a7.446 7.446 0 0 0 -12.8 0l-39.292 65.976a7.446 7.446 0 0 0 6.4 11.257h78.592a7.446 7.446 0 0 0 6.4-11.257zm-2.966 5.76a3.9 3.9 0 0 1 -3.431 2h-78.59a3.946 3.946 0 0 1 -3.39-5.966l39.3-65.973a3.945 3.945 0 0 1 6.78 0l39.3 65.973a3.9 3.9 0 0 1 .031 3.966z" fill="#000000" style="fill: rgb(255, 0, 0);"></path><path d="m64 46.6a6.587 6.587 0 0 0 -6.579 6.58v16.678a6.579 6.579 0 1 0 13.158 0v-16.675a6.587 6.587 0 0 0 -6.579-6.583zm3.079 23.255a3.079 3.079 0 1 1 -6.158 0v-16.672a3.079 3.079 0 1 1 6.158 0z" fill="#000000" style="fill: rgb(255, 0, 0);"></path><path d="m64 80.11a6.58 6.58 0 1 0 6.579 6.58 6.586 6.586 0 0 0 -6.579-6.58zm0 9.659a3.08 3.08 0 1 1 3.079-3.079 3.082 3.082 0 0 1 -3.079 3.079z" fill="#000000" style="fill: rgb(255, 0, 0);"></path></g></svg>