<!-- icon666.com - MILLIONS vector ICONS FREE --><svg viewBox="0 -32 512.00096 512" xmlns="http://www.w3.org/2000/svg"><path d="m255.945312 328.28125c-8.277343 0-15.003906 6.726562-15.003906 15.003906s6.726563 15 15.003906 15c8.277344 0 15-6.722656 15-15s-6.722656-15.003906-15-15.003906zm0 0" fill="#000000" style="fill: rgb(255, 0, 0);"></path><path d="m241.945312 148.242188h29v90.019531h-29zm0 0" fill="#000000" style="fill: rgb(255, 0, 0);"></path><path d="m504.042969 358.625-194.082031-328.03125c-12.496094-19.152344-32.039063-30.59375-54.015626-30.59375-21.976562 0-41.523437 11.441406-52.160156 30.34375l-195.851562 328.28125c-.042969.070312-.085938.160156-.132813.25-10.578125 18.78125-10.386719 41.109375.5 59.71875 10.871094 18.605469 30.238281 29.710938 51.808594 29.710938h394.710937c21.570313 0 39.226563-11.105469 50.101563-29.710938 10.882813-18.609375 8.121094-40.9375-.878906-59.96875zm-248.097657 29.667969c-24.820312 0-45.011718-20.191407-45.011718-45.007813 0-24.820312 20.191406-45.011718 45.011718-45.011718 24.816407 0 45.007813 20.191406 45.007813 45.011718 0 24.816406-20.1875 45.007813-45.007813 45.007813zm46.011719-135.027344c0 8.292969-7.714843 15.003906-16.007812 15.003906h-60.011719c-8.292969 0-15.003906-6.710937-15.003906-15.003906v-120.023437c0-8.292969 6.710937-15.003907 15.003906-15.003907h60.011719c8.292969 0 16.007812 6.710938 16.007812 15.003907zm0 0" fill="#000000" style="fill: rgb(255, 0, 0);"></path></svg>